<svg xmlns="http://www.w3.org/2000/svg" width="23" height="20" viewBox="0 0 23 20">
  <path id="Subtraction_1" data-name="Subtraction 1" d="M-1566.282,958.5v0a8.023,8.023,0,0,0-1.619-3.917,9.331,9.331,0,0,0-4.187-3.162,5.049,5.049,0,0,0,1.821-3.984,5,5,0,0,0-1.479-3.636,4.8,4.8,0,0,0-3.513-1.494,4.8,4.8,0,0,0-3.513,1.494,5,5,0,0,0-1.479,3.636,5.023,5.023,0,0,0,1.869,4.009,8.944,8.944,0,0,0-3.49,2.564,9.7,9.7,0,0,0-2.046,3.935c-.021.079-.041.155-.06.229a12.253,12.253,0,0,1-1.854-3.487,12.647,12.647,0,0,1-.67-4.08,12.354,12.354,0,0,1,3.369-8.56A11.143,11.143,0,0,1-1575,938.5a11.143,11.143,0,0,1,8.132,3.545,12.354,12.354,0,0,1,3.368,8.56,12.487,12.487,0,0,1-2.781,7.894Z" transform="translate(1586.5 -938.5)" fill="#fff"/>
</svg>
