<svg xmlns="http://www.w3.org/2000/svg" width="29.236" height="26.997" viewBox="0 0 29.236 26.997">
  <g id="Icon_ionic-ios-book" data-name="Icon ionic-ios-book" transform="translate(-3.382 -4.5)">
    <path id="Path_8" data-name="Path 8" d="M10.266,4.507c3.8,0,7.031,1.962,7.031,5.766V11.4h0V31.359a.138.138,0,0,1-.267.049V31.4a6.612,6.612,0,0,0-5.787-4.957A8.925,8.925,0,0,0,4.7,29.053a.758.758,0,0,1-.464.2H3.916c-.26,0-.534-.19-.534-.429V8.452C3.375,6.195,6.462,4.507,10.266,4.507Z" fill="#fff"/>
    <path id="Path_9" data-name="Path 9" d="M25.734,4.5c-3.8,0-7.031,1.962-7.031,5.766v1.125h0V31.352a.138.138,0,0,0,.267.049v-.007a6.68,6.68,0,0,1,5.787-4.957A8.909,8.909,0,0,1,31.3,29.046a.8.8,0,0,0,.464.2h.316c.26,0,.534-.19.534-.429V8.438C32.625,6.188,29.538,4.5,25.734,4.5Z" fill="#fff"/>
  </g>
</svg>
