<svg xmlns="http://www.w3.org/2000/svg" width="24" height="24" viewBox="0 0 24 24">
  <g id="Group_2" data-name="Group 2" transform="translate(-1897 -114)">
    <path id="Icon_ionic-md-settings" data-name="Icon ionic-md-settings" d="M24.488,16.575a7.5,7.5,0,0,0,.061-1.2c0-.42-.061-.78-.061-1.2l2.577-1.98a.551.551,0,0,0,.123-.78l-2.455-4.14A.6.6,0,0,0,24,7.035l-3.068,1.2a8.932,8.932,0,0,0-2.086-1.2l-.43-3.18a.658.658,0,0,0-.614-.48H12.889a.658.658,0,0,0-.614.48l-.491,3.18A10.392,10.392,0,0,0,9.7,8.235L6.63,7.035a.575.575,0,0,0-.737.24l-2.455,4.14a.725.725,0,0,0,.123.78L6.2,14.175c0,.42-.061.78-.061,1.2s.061.78.061,1.2l-2.577,1.98a.551.551,0,0,0-.123.78l2.455,4.14a.6.6,0,0,0,.737.24l3.068-1.2a8.931,8.931,0,0,0,2.086,1.2l.491,3.18a.6.6,0,0,0,.614.48H17.86a.658.658,0,0,0,.614-.48l.491-3.18a10.386,10.386,0,0,0,2.086-1.2l3.068,1.2a.575.575,0,0,0,.737-.24l2.455-4.14a.724.724,0,0,0-.123-.78Zm-9.144,3a4.2,4.2,0,1,1,4.3-4.2A4.222,4.222,0,0,1,15.344,19.575Z" transform="translate(1893.625 110.625)" fill="#fff"/>
  </g>
</svg>
